# xmcd
#
# Track frame offsets: 
#        187
#        11810
#        25117
#        38347
#        51255
#        63110
#        77162
#        88762
#        100692
#        111292
#        123700
#        136387
#        148350
#        160715
#        173010
#        186097
#        198395
#        211632
#        224220
#        237665
#
# Disc length: 3339 seconds
#
# Revision: 0
# Processed by: cddbd v1.4PL0 Copyright (c) Steve Scherf et al.
# Submitted via: ExactAudioCopy v0.90a11
#
DISCID=1f0d0914
DTITLE=Cousin Joe - The complete (Vol.2)
DYEAR=1900
DGENRE=
TTITLE0=If I Just Keep Still
TTITLE1=When Your Mother's Gone
TTITLE2=When The Roll Be Called In Heaven
TTITLE3=Make As Strong As Samson
TTITLE4=My Tight Woman
TTITLE5=Lightning Struck The Poorhouse
TTITLE6=Just As Soon As I Go Home
TTITLE7=Phoney Woman Blues
TTITLE8=Little Woman Blues
TTITLE9=It's Dangerous To Be A Husband
TTITLE10=Old Man Blues
TTITLE11=Death House Blues
TTITLE12=Too Tight To Walk Loose
TTITLE13=Big Fat Mama
TTITLE14=Come Down Baby
TTITLE15=Bachelor's Blues
TTITLE16=Don't Pay Me No Mind
TTITLE17=Stoop To Conquer
TTITLE18=Bad Luck Blues
TTITLE19=Box Car Shorty And Peter Blue
EXTD=Blue Moon Producciones Discográficas
EXTT0=
EXTT1=
EXTT2=
EXTT3=
EXTT4=
EXTT5=
EXTT6=
EXTT7=
EXTT8=
EXTT9=
EXTT10=
EXTT11=
EXTT12=
EXTT13=
EXTT14=
EXTT15=
EXTT16=
EXTT17=
EXTT18=
EXTT19=
PLAYORDER=
